<?xml version="1.0" encoding="UTF-8" standalone="no"?>
<svg
   xmlns:dc="http://purl.org/dc/elements/1.1/"
   xmlns:cc="http://creativecommons.org/ns#"
   xmlns:rdf="http://www.w3.org/1999/02/22-rdf-syntax-ns#"
   xmlns:svg="http://www.w3.org/2000/svg"
   xmlns="http://www.w3.org/2000/svg"
   xmlns:sodipodi="http://sodipodi.sourceforge.net/DTD/sodipodi-0.dtd"
   xmlns:inkscape="http://www.inkscape.org/namespaces/inkscape"
   inkscape:export-ydpi="96"
   inkscape:export-xdpi="96"
   inkscape:export-filename="C:\Users\katha\Desktop\icon.png"
   height="2031.36"
   width="1904.698"
   inkscape:version="1.0 (4035a4fb49, 2020-05-01)"
   sodipodi:docname="Calendar.svg"
   id="svg12"
   xml:space="preserve"
   enable-background="new 0 0 1000 1000"
   viewBox="0 0 1904.698 2031.36"
   y="0px"
   x="0px"
   version="1.1"><defs
   id="defs16" /><sodipodi:namedview
   inkscape:current-layer="svg12"
   inkscape:window-maximized="1"
   inkscape:window-y="-8"
   inkscape:window-x="-8"
   inkscape:cy="1242.5614"
   inkscape:cx="809.93699"
   inkscape:zoom="0.19021172"
   showgrid="false"
   id="namedview14"
   inkscape:window-height="705"
   inkscape:window-width="1366"
   inkscape:pageshadow="2"
   inkscape:pageopacity="0"
   guidetolerance="10"
   gridtolerance="10"
   objecttolerance="10"
   borderopacity="1"
   bordercolor="#666666"
   pagecolor="#ffffff" />
<metadata
   id="metadata2"> Svg Vector Icons : http://www.onlinewebfonts.com/icon <rdf:RDF><cc:Work
     rdf:about=""><dc:format>image/svg+xml</dc:format><dc:type
       rdf:resource="http://purl.org/dc/dcmitype/StillImage" /><dc:title></dc:title></cc:Work></rdf:RDF></metadata>

<g
   transform="matrix(2.0730278,0,0,2.0730278,-84.164929,-20.730278)"
   id="g1034"><g
     id="g1013"><g
       id="g993"><g
         id="g974"><g
           id="g956"><rect
             style="opacity:0.99;fill:#ffe6d0;fill-opacity:1;stroke-width:1.496;stroke-linecap:round;stroke-miterlimit:4;stroke-dasharray:none"
             id="rect935"
             width="828.94928"
             height="563.73236"
             x="91.078125"
             y="377.32422" /><rect
             style="opacity:0.99;fill:#ffe6d0;fill-opacity:1;stroke-width:1.496;stroke-linecap:round;stroke-miterlimit:4;stroke-dasharray:none"
             id="rect937"
             width="105.14504"
             height="215.54913"
             x="265.49362"
             y="63.087593" /><rect
             style="opacity:0.99;fill:#ffe6d0;fill-opacity:1;stroke-width:1.496;stroke-linecap:round;stroke-miterlimit:4;stroke-dasharray:none"
             id="rect939"
             width="113.03159"
             height="220.8071"
             x="644.01917"
             y="44.687046" /><path
             id="rect920"
             style="opacity:0.99;fill:#ff7500;fill-opacity:1;stroke-width:1.496;stroke-linecap:round;stroke-miterlimit:4;stroke-dasharray:none"
             d="M 91.078125,163.56836 V 377.32422 H 914.49805 V 163.56836 H 757.05078 V 265.49414 H 636.13281 V 163.56836 H 370.63867 V 278.63672 H 254.97852 V 163.56836 Z" /><g
             id="g10"><path
               d="m 101.9,408.1 v 490.1 c 0,16.9 13.6,30.5 30.4,30.5 h 735.5 c 16.6,0 30.4,-13.8 30.4,-30.6 v -245 c 0,-16.9 13.7,-30.6 30.6,-30.6 16.9,0 30.6,13.7 30.6,30.6 v 245 c 0,50.6 -41.2,91.8 -91.6,91.8 H 132.2 c -50.6,0 -91.6,-41.1 -91.6,-91.8 V 224.3 c 0,-50.6 41.2,-91.8 91.6,-91.8 H 255 c 16.9,0 30.6,13.7 30.6,30.6 0,16.9 -13.7,30.6 -30.6,30.6 H 132.2 c -16.6,0 -30.4,13.8 -30.4,30.5 V 346.8 H 898 V 224.1 c 0,-16.6 -13.7,-30.3 -30.4,-30.3 H 760.3 c -16.9,0 -30.6,-13.7 -30.6,-30.6 0,-16.9 13.7,-30.6 30.6,-30.6 h 107.5 c 50.5,0 91.6,41.1 91.6,91.6 v 230 c 0,16.9 -13.7,30.6 -30.6,30.6 -16.9,0 -30.6,-13.7 -30.6,-30.6 V 408.3 H 101.9 Z M 371.6,193.8 h 263.1 c 16.9,0 30.6,-13.7 30.6,-30.6 0,-16.9 -13.7,-30.6 -30.6,-30.6 H 371.6 c -16.9,0 -30.6,13.7 -30.6,30.6 0,16.8 13.7,30.6 30.6,30.6 z"
               id="path4" /><path
               d="m 287.9,91.6 v 0 143 c 0,11.5 9.1,20.4 20.3,20.4 v 0 c 11.3,0 20.3,-9.1 20.3,-20.4 v -143 c 0,-11.5 -9.1,-20.4 -20.3,-20.4 v 0 c -11.3,0.1 -20.3,9.2 -20.3,20.4 z m -61.3,0 v 0 c 0,-45 36.4,-81.6 81.6,-81.6 45.1,0 81.6,36.3 81.6,81.6 v 143 c 0,45 -36.4,81.6 -81.6,81.6 -45.1,0 -81.6,-36.3 -81.6,-81.6 z"
               id="path6" /><path
               d="m 675.3,91.6 v 0 143 c 0,11.5 9.1,20.4 20.3,20.4 v 0 c 11.3,0 20.3,-9.1 20.3,-20.4 v -143 c 0,-11.5 -9.1,-20.4 -20.3,-20.4 v 0 c -11.3,0.1 -20.3,9.2 -20.3,20.4 z m -61.3,0 v 0 c 0,-45 36.4,-81.6 81.6,-81.6 45.1,0 81.6,36.3 81.6,81.6 v 143 c 0,45 -36.4,81.6 -81.6,81.6 -45,0 -81.6,-36.3 -81.6,-81.6 z"
               id="path8" /></g><g
             id="g42"
             transform="matrix(0.49577987,0,0,0.49577987,256.90088,414.6773)"><g
               id="g885"
               transform="translate(-2032.0207,1192.2188)"><g
                 id="g879"><g
                   id="g916"
                   transform="translate(4618.9105,-2669.3703)"><path
                     d="m -2319.4326,1624.9223 c -6.4,0 -12.2978,2.9997 -16.2978,8.0996 -28.7,37.4 -43.9017,82.1015 -43.9017,129.1014 0,12.3999 1.1013,25.0002 3.3012,37.5001 -46.0999,40.4999 -78.4989,80.6988 -96.6989,119.8986 -47.8001,12.3 -95.202,55.9008 -95.202,111.7006 v 34.3997 c 0,51.2002 47.1016,94.801 94.7015,109.6009 29.2999,74.0002 78.6989,128.7009 150.8987,166.9009 v 33.0011 c 0,43.6 33.1003,79.6999 73.7002,80.4999 h 1.8004 c 33.3001,0 61.2978,-20.5025 72.798,-52.2024 24.7001,4.2999 47.7004,6.4018 71.6004,6.4018 32.1001,0 63.1014,-3.5012 94.2015,-10.6013 10.6999,32.9001 42.3,56.4019 78.3999,56.4019 44.8001,0 82.5983,-37.1 82.3986,-81.0001 v -46.0017 c 0,-1.9 -0.2973,-3.6002 -0.6972,-5.2001 69.5998,-54.6998 115.1968,-129.2989 129.8969,-212.0987 3.2,0.4996 6.4031,0.6973 9.7031,0.6973 35.1001,0 63.6978,-26.0981 63.6978,-58.1982 0,-31.9999 -28.6996,-58.0998 -64.0996,-58.0998 -3.3,0 -6.5999,0.2013 -9.8999,0.7013 -7.6,-42.8 -23.7021,-83.5028 -47.8019,-121.2028 -25.9,-40.4 -59.8001,-75.3988 -100.8002,-103.9988 l -7.0989,-4.9007 -7.0989,4.9992 c -38.5,26.9999 -83.6986,41.3018 -130.5985,41.3018 -73.4001,0 -142.703,-35.7984 -185.5031,-95.6984 l -4.8967,-6.902 -8.2022,2.0997 c -11.3,2.9001 -21.9991,6.1005 -32.099,9.6006 -25.6002,-21.9002 -44.8007,-50.2007 -55.7007,-82.0007 -2.9999,-8.8 -11.301,-14.8007 -20.501,-14.8007 z m -24.1138,277.9159 a 34.463325,34.463325 0 0 1 0.1497,0 34.463325,34.463325 0 0 1 34.4629,34.4629 34.463325,34.463325 0 0 1 -34.4629,34.4626 34.463325,34.463325 0 0 1 -34.4627,-34.4626 34.463325,34.463325 0 0 1 34.313,-34.4629 z"
                     style="opacity:0.99;fill:#8f3400;fill-opacity:1;stroke-width:3.01747;stroke-linecap:round;stroke-miterlimit:4;stroke-dasharray:none"
                     id="path904" /><circle
                     r="127.46993"
                     cy="1623.0055"
                     cx="-2017.8215"
                     id="path912"
                     style="opacity:0.99;fill:#ffa200;fill-opacity:1;stroke-width:2.33168;stroke-linecap:round;stroke-miterlimit:4;stroke-dasharray:none" /></g><circle
                   style="opacity:0.99;fill:#000000;fill-opacity:1;stroke-width:3.01747;stroke-linecap:round;stroke-miterlimit:4;stroke-dasharray:none"
                   id="path918"
                   cx="2264.0854"
                   cy="-729.63068"
                   r="53.0205" /></g></g></g></g></g></g></g></g></svg>
